<?xml version="1.0" encoding="UTF-8"?>
<!DOCTYPE svg PUBLIC "-//W3C//DTD SVG 1.1//EN" "http://www.w3.org/Graphics/SVG/1.1/DTD/svg11.dtd">
<!-- Creator: CorelDRAW X5 -->
<svg xmlns="http://www.w3.org/2000/svg" xml:space="preserve" width="48.1064mm" height="39.5991mm" style="shape-rendering:geometricPrecision; text-rendering:geometricPrecision; image-rendering:optimizeQuality; fill-rule:evenodd; clip-rule:evenodd"
viewBox="0 0 35.7402 29.4198"
 xmlns:xlink="http://www.w3.org/1999/xlink">
 <defs>
  <style type="text/css">
   <![CDATA[
    .fil0 {fill:#047F90}
   ]]>
  </style>
 </defs>
 <g id="Layer_x0020_1">
  <metadata id="CorelCorpID_0Corel-Layer"/>
  <path class="fil0" d="M3.38171 2.57503l0 24.2337 -3.38171 1.03722 0 1.57377 35.7402 0 0 -7.72137 -2.61099 0 -2.00958 5.16796 -22.4871 0 0 -11.0634 6.12242 0 1.47295 4.25682 1.27845 0 0 -11.4272 -1.27845 0 -1.47295 4.15601 -6.12242 0 0 -10.2351 12.6409 0 0 -2.55341 -21.2734 0 0 1.63863 3.38171 0.936401zm20.0814 -2.57503l0 2.55341c4.66016,0.518572 6.46083,1.81872 6.44285,7.03713 -0.0107726,3.01797 -1.102,4.41886 -2.3913,5.2904 -1.51263,1.02281 -3.42495,1.06961 -6.9687,0.435809l0 1.2893c3.35653,2.75504 9.84262,2.53172 12.9002,-0.911142 1.20646,-1.35772 2.10319,-2.34457 2.17525,-6.7346 0.0936104,-5.64701 -4.00474,-8.9603 -9.43207,-8.9603l-2.72622 0z"/>
 </g>
</svg>
